<svg xmlns="http://www.w3.org/2000/svg" viewBox="0 0 200 132" width="200" height="132">
  <!-- A rugby ball, not a gridiron one: fuller body, four panels, and stitching
       running the full length of the seam rather than raised laces in the middle.
       CMS palette only — white body, Blue #31459C seams, Turquoise #00AEED bands. -->
  <path d="M8,66 C26,12 66,4 100,4 C134,4 174,12 192,66 C174,120 134,128 100,128 C66,128 26,120 8,66 Z"
        fill="#FFFFFF" stroke="#31459C" stroke-width="6" stroke-linejoin="round"/>
  <path d="M34,48 Q100,-2 166,48" fill="none" stroke="#31459C" stroke-width="3.5" opacity=".5" stroke-linecap="round"/>
  <path d="M34,84 Q100,134 166,84" fill="none" stroke="#31459C" stroke-width="3.5" opacity=".5" stroke-linecap="round"/>
  <path d="M48,26 Q38,66 48,106" fill="none" stroke="#00AEED" stroke-width="8" stroke-linecap="round"/>
  <path d="M152,26 Q162,66 152,106" fill="none" stroke="#00AEED" stroke-width="8" stroke-linecap="round"/>
  <line x1="26" y1="66" x2="174" y2="66" stroke="#31459C" stroke-width="2.5" opacity=".45" stroke-linecap="round"/>
  <g stroke="#31459C" stroke-width="2.5" opacity=".45" stroke-linecap="round">
    <line x1="34" y1="61" x2="34" y2="71"/>
    <line x1="49" y1="59" x2="49" y2="73"/>
    <line x1="64" y1="58" x2="64" y2="74"/>
    <line x1="79" y1="57" x2="79" y2="75"/>
    <line x1="94" y1="57" x2="94" y2="75"/>
    <line x1="109" y1="57" x2="109" y2="75"/>
    <line x1="124" y1="58" x2="124" y2="74"/>
    <line x1="139" y1="59" x2="139" y2="73"/>
    <line x1="154" y1="61" x2="154" y2="71"/>
    <line x1="167" y1="63" x2="167" y2="69"/>
  </g>
</svg>
